<svg xmlns="http://www.w3.org/2000/svg" width="1031" height="892" fill="none" viewBox="0 0 1031 892">
  <path fill="#000" fill-rule="evenodd" d="M791.399.547c-2.2.452-6.175 1.067-8.834 1.367-5.097.575-10.251 3.034-11.123 5.308-.326.849-.083 1.085.65.632.643-.398-1.346 2.39-4.421 6.198-6.385 7.904-8.163 11.936-9.806 22.23-1.054 6.603-.824 11.793.7 15.762.399 1.04-.259 1.429-2.424 1.429-3.952 0-8.242 3.459-8.242 6.645 0 3.189 10.371 23.384 10.817 21.065.181-.94.899-1.71 1.594-1.71.871 0 1.659 3.544 2.534 11.386l1.269 11.386 3.143.915 3.143.915-.097 6.949c-.114 8.255-1.919 15.449-3.874 15.449-.767 0-1.68.9-2.029 2s-1.059 2-1.578 2c-1.624 0-10.811 6.443-10.868 7.622-.036.758 4.49 1.267 13.965 1.569 12.076.385 14.398.728 16.75 2.471 5.196 3.851 9.159 10.299 12.055 19.617l2.845 9.149 3.174-10.083c2.441-7.753 4.089-11.122 7.135-14.583 4.752-5.398 6.339-5.847 23.522-6.653l13-.609-3.236-3.138c-1.78-1.726-4.452-3.443-5.939-3.817-3.966-.995-8.32-4.404-9.469-7.413-.552-1.447-2.081-9.832-3.397-18.632-2.227-14.886-5.166-25.627-7.663-28-.735-.698-.874 1.117-.463 6 .697 8.268-1.062 6.748-2.017-1.744-.326-2.891-1.016-6.082-1.534-7.091-3.324-6.47-24.206-6.05-26.646.537-.469 1.264-1.436 7.473-2.15 13.798-.713 6.325-1.664 12.175-2.111 13-1.094 2.015-1.062-3.007.095-14.976.623-6.443.584-9.682-.124-10.12-1.646-1.016 4.085-5.692 9.051-7.385 2.453-.835 6.324-1.52 8.603-1.52 5.255 0 13.29 2.642 16.385 5.386 3.155 2.797 6.469 10.379 8.575 19.615 2.654 11.645 2.587 11.537 5.671 9.112 2.21-1.739 2.682-3.094 3.248-9.323.914-10.083 1.552-13.128 2.924-13.976.649-.401 1.59-.32 2.092.182 1.241 1.24 4.605-.655 4.605-2.596 0-.841 1.539-4.861 3.42-8.932 3.404-7.368 3.411-7.412 1.516-9.822-1.048-1.331-3.146-2.732-4.665-3.113-4.189-1.052-5.256-2.357-4.601-5.63 1.011-5.056-1.673-21.945-4.394-27.643C825.371 7.479 806.182-2.49 791.399.547Zm-583 5.969c-1.65.54-4.958 1.034-7.351 1.098-2.832.076-3.879.415-3 .973.949.6.569.86-1.277.87-1.445.009-3.196.7-3.891 1.539-1.073 1.293-.978 1.417.628.824 1.04-.385-.247 1.527-2.861 4.247-9.747 10.147-12.649 17.263-13.168 32.285l-.289 8.379-3.896 1.356c-2.142.746-3.987 1.363-4.1 1.37-.112.009-.502 1.6-.865 3.537-.548 2.923.081 5.004 3.705 12.25 4.342 8.683 6.062 11.045 6.698 9.197.184-.532 1.196-.968 2.25-.968 1.746 0 1.917.796 1.917 8.935 0 12.053.725 13.615 7.745 16.697 3.165 1.389 7.995 3.953 10.732 5.697 4.761 3.033 5.413 3.169 15 3.117 10.002-.054 10.046-.065 20.646-5.244 5.842-2.854 11.204-5.892 11.916-6.749.712-.858 1.747-6.035 2.302-11.506.966-9.542 1.104-9.947 3.399-9.947 4.305 0 5.738-1.697 8.735-10.342 3.544-10.226 3.064-12.844-2.975-16.221-3.192-1.785-4.02-2.831-4.1-5.183-.574-16.9-2.635-25.714-6.827-29.193-.865-.718-1.615-2.038-1.667-2.933-.151-2.605-8.349-9.137-14.63-11.657-6.565-2.634-20.092-3.96-24.776-2.428ZM754.34 49.94c-1.067.808-1.434 1.483-.813 1.5.62.018 1.687-.643 2.372-1.468 1.581-1.905.935-1.918-1.559-.032Zm-581.941 4.532c-.34.55.084 1 .941 1s1.559-.45 1.559-1-.423-1-.941-1-1.219.45-1.559 1Zm603.536 27.405c-2.025 5.326-2.053 7.98-.034 3.213 1.138-2.685 1.84-5.11 1.561-5.388-.279-.28-.966.7-1.527 2.175Zm51.122 30.595c0 1.375.227 1.938.504 1.25.278-.687.278-1.812 0-2.5-.277-.687-.504-.125-.504 1.25Zm-639.085 2.298c-1.902 5.801-1.542 15.868.725 20.248 3.947 7.624 12.451 17.44 19.602 22.626 5.346 3.877 6.6 3.675 6.6-1.061 0-3.042.369-3.859 1.693-3.75 1.152.095 2.091-1.139 2.938-3.861 1.183-3.799 1.217-3.642.677 3.11-.686 8.573.265 9.6 5.61 6.063 5.122-3.39 19.135-20.149 20.739-24.802 1.594-4.629-.1-20.871-2.178-20.871-1.88 0-14.479 6.068-14.479 6.973 0 1.386-5.189 12.171-5.639 11.721-.239-.239.482-2.759 1.602-5.601 1.121-2.842 2.037-5.351 2.037-5.575 0-.225-4.939-.422-10.976-.438l-10.975-.03 2.081 5.225c3.363 8.444 3.208 8.683-.626.966-3.182-6.405-4.196-7.558-8.618-9.799-9.324-4.724-9.628-4.757-10.813-1.144Zm-6.073 19.413c-.825.304-7.024 3.194-13.776 6.421-6.751 3.227-12.73 5.868-13.285 5.868-1.494 0-5.939 3.089-5.939 4.127 0 .494 2.498 2.496 5.551 4.449l5.551 3.551 4.456-1.702c5.617-2.145 10.898-1.584 24.31 2.583 18.772 5.832 20.86 4.547 10.369-6.381-4.326-4.506-9.404-10.765-11.285-13.91-1.88-3.144-3.652-5.681-3.936-5.638-.284.043-1.191.328-2.016.632Zm29.086-.211c.104 1.894 1.77 5.084 1.828 3.5.031-.825-.381-2.175-.914-3-.533-.825-.945-1.05-.914-.5Zm37.209.75c-.523.688-2.11 3.275-3.528 5.75-1.418 2.475-5.77 7.868-9.672 11.985-3.902 4.117-7.095 8.055-7.095 8.75 0 2.165 7.042 1.443 17.049-1.749 12.55-4.002 20.449-4.793 25.229-2.524 3.904 1.852 3.775 1.891 11.075-3.328 5.604-4.007 5.911-3.609-6.614-8.591-3.719-1.479-10.665-4.681-15.437-7.116-9.65-4.924-9.674-4.931-11.007-3.177Zm496.205 7.308c-7.368 1.529-15.49 4.474-15.496 5.619-.002.372 2.226 2.397 4.952 4.5 6.98 5.384 8.433 8.733 13.592 31.323 1.925 8.43 5.806 16.835 11.564 25.043 2.138 3.049 3.888 5.95 3.888 6.446 0 .496 1.07 2.051 2.377 3.456 1.307 1.405 4.523 5.705 7.145 9.555 2.623 3.85 6.45 9.25 8.504 12 4.134 5.535 11.474 19.461 12.523 23.759 1.932 7.925 2.35.493 1.908-33.968-.705-55.045-.926-58.856-3.936-67.825-4.088-12.176-5.735-14.721-11.597-17.911-4.776-2.599-6.281-2.881-16.834-3.152-7.392-.19-14.126.228-18.59 1.155Zm77.717-.445c-9.3 1.549-12.435 3.833-16.062 11.702-5.225 11.334-6.232 19.122-7.01 54.185-.693 31.24-.216 59.423.974 57.5.34-.55 1.182-2.747 1.871-4.883 1.28-3.968 8.9-17.115 12.901-22.257 6.115-7.861 12.109-16.372 12.109-17.193 0-.507.664-1.474 1.476-2.147.812-.674 4.015-5.001 7.117-9.615 6.235-9.275 10.459-20.173 12.975-33.474 2.372-12.548 8.303-22.402 16.114-26.773 2.155-1.206 2.146-1.213-4.182-3.554-11.114-4.11-26.266-5.491-38.283-3.491Zm-601.138 1.47c.048 1.165.285 1.402.604.605.289-.722.253-1.585-.079-1.917-.332-.332-.568.258-.525 1.312Zm493.921 6.417c-.825.533-2.539.976-3.809.985-1.27.008-2.043.446-1.717.972.625 1.011-4.423 4.043-6.732 4.043-2.734 0-18.505 14.262-21.969 19.868-2.845 4.603-7.945 24.542-7.568 29.591.278 3.738.521 4.011 4.295 4.824 2.495.538 7.373.414 12.963-.328 11.048-1.466 13.831-3.192 30.855-19.139 6.7-6.276 13.87-12.439 15.932-13.695 4.068-2.478 4.767-5.28 2.694-10.806-4.086-10.895-18.621-20.401-24.944-16.315Zm150.941 1.786c-8.165 5.244-13.679 14.108-12.75 20.497.17 1.17 2.334 3.646 4.809 5.501 2.475 1.856 9.225 7.99 15 13.633 15.105 14.758 17.647 16.34 29.382 18.292 6.804 1.131 10.838 1.343 13.423.704 3.636-.898 3.691-.985 3.427-5.413-.999-16.815-1.532-18.961-6.98-28.134-4.985-8.396-15.197-17.917-22.752-21.215-2.2-.96-4.675-2.176-5.5-2.701-2.885-1.836-6.528-3.156-10-3.623-2.686-.36-4.56.211-8.059 2.459Zm-579.441 1.907c-6.67 3.585-9.5 6.44-9.5 9.584 0 5.637 15.185 35.768 20.886 41.443 1.988 1.979 5.362 3.469 11.704 5.17 9.502 2.549 17.956 5.743 25.66 9.693l4.75 2.436v-10.437c0-14.295-1.599-25.066-4.623-31.149-3.5-7.04-15.04-19.412-20.779-22.278-4.011-2.002-20.633-6.238-24-6.115-.604.022-2.448.766-4.098 1.653Zm-150.885.025c-.603.603-4.752 1.307-14.792 2.51-.922.11-1.457.555-1.189.988.267.433-.553 1.195-1.824 1.694-2.509.984-15.103 13.655-18.615 18.728-1.194 1.726-2.88 6.192-3.745 9.924-1.871 8.065-3.678 32.577-2.491 33.783.457.465 4.14-.716 8.186-2.624 8.193-3.865 15.514-6.512 27.235-9.847 7.682-2.186 7.971-2.383 11.463-7.808 5.104-7.932 14.426-26.607 16.458-32.971 2.091-6.552 1.245-8.413-5.665-12.463-4.401-2.579-13.231-3.704-15.021-1.914Zm29.149 7.093c-2.604 1.479-4.742 3.039-4.75 3.467-.016.907-6.098 14.387-9.124 20.222-1.14 2.2-4.507 8.672-7.482 14.382-2.974 5.71-5.408 11.274-5.408 12.365 0 2.627 5.655 7.801 15.658 14.325 11.641 7.593 11.907 9.328.541 3.529-2.129-1.085-5.181-2.115-6.784-2.287l-2.915-.314-.644 9c-1.889 26.396-.12 69.599 3.11 75.934 2.071 4.061 2.735 3.67 5.9-3.467 1.089-2.457 5.502-8.378 9.807-13.159 4.305-4.78 8.804-10.63 9.998-13 1.194-2.369 3.156-9.662 4.361-16.205 1.204-6.543 2.847-13.827 3.651-16.187.804-2.359 1.317-5.538 1.14-7.063-.282-2.418-1.219-3.122-7.323-5.5-7.727-3.011-7.427-3.171 3.5-1.876 11.332 1.343 19.906-.831 25.556-6.48 2.354-2.354 5.662-6.691 7.352-9.638 3.015-5.257 3.073-5.617 3.083-18.927.018-26.503-3.684-30.89-33.256-39.407-4.821-1.389-9.321-2.498-10-2.464-.679.033-3.366 1.27-5.971 2.75Zm94.736-2.34c-.55.172-3.7 1.08-7 2.017-12.261 3.485-22.784 7.914-25.994 10.941-4.609 4.348-5.763 10.925-5.332 30.396.388 17.526.736 18.67 7.868 25.918 13.444 13.663 40.68 9.187 61.347-10.083 4.411-4.113 4.836-4.888 4.342-7.93-.301-1.854-1.879-6.04-3.507-9.301-8.528-17.083-13.464-27.052-15.71-31.728-3.606-7.506-10.547-11.94-16.014-10.23Zm-49.5 8.634c0 .907.65 2.19 1.445 2.85.795.659 2.181 3.414 3.081 6.122.899 2.708 2.005 4.923 2.459 4.923.853 0 8.015-13.212 8.015-14.787 0-.49-3.375-.861-7.5-.825-6.277.056-7.5.335-7.5 1.717Zm640.144 12.727c-.567 1.468-1.546 5.293-2.176 8.501-1.656 8.438-6.926 17.669-26.93 47.167-15.462 22.8-15.321 20.932-2.595 34.236 11.716 12.247 18.621 16.264 27.961 16.264 5.313 0 6.794-.452 11.197-3.417 8.006-5.392 12.939-12.074 16.812-22.774 1.872-5.17 3.738-11.63 4.148-14.355l.744-4.954 1.708 5.017c2.62 7.701 7.441 15.542 12.439 20.233 6.151 5.774 8.258 5.582 11.009-1.003 3.079-7.367.786-26.679-4.309-36.299-4.15-7.835-13.705-20.962-16.116-22.141-2.201-1.076-2.643-.931-4.149 1.366-1.659 2.528-1.704 2.537-2.787.514-.605-1.13-1.1-2.577-1.1-3.214 0-.636-.9-2.302-2-3.7-1.1-1.399-2-3.345-2-4.325 0-2.473-14.39-17.54-17.93-18.774-2.631-.917-2.99-.765-3.926 1.658Zm-113.153.589c-5.468 3.589-10.158 9.358-15.537 19.11l-4.947 8.969-.346 18.648c-.405 21.89.403 26.939 6.034 37.682 4.523 8.63 9.1 13.859 16.019 18.304 3.936 2.529 5.708 3.023 10.739 2.999 6.339-.03 11.637-1.917 14.611-5.204.96-1.061 2.269-1.929 2.908-1.929 1.352 0 17.607-17.185 18.902-19.984 1.182-2.552.211-5.918-2.903-10.065-1.426-1.898-6.36-9.301-10.964-16.451s-9.234-14.125-10.288-15.5c-4.718-6.153-13.22-21.552-13.725-24.859-.306-2.003-1.24-6.004-2.076-8.891-1.737-5.998-2.969-6.411-8.427-2.829Zm-67.912 20.162c.048 1.165.285 1.402.604.605.289-.722.253-1.585-.079-1.917-.332-.332-.568.258-.525 1.312Zm37.715 7.167c-7.412 8.556-15.409 23.646-18.416 34.75-2.915 10.764-1.153 23.945 3.537 26.455 2.54 1.359 4.445.45 8.644-4.123 10.894-11.867 12.707-17.307 13.235-39.71.326-13.85.134-17.553-.943-18.235-2.14-1.356-4.415-1.032-6.057.863Zm-15.794 4.401c-2.475.512-8.051 1.025-12.392 1.14-5.836.155-8.098.6-8.686 1.709-7.408 13.976-11.345 30.142-8.43 34.617 2.14 3.283 4.928 3.424 10.403.526 8.84-4.679 13.975-10.69 21.105-24.705 3.575-7.027 6.65-13.15 6.833-13.607.412-1.027-2.91-.906-8.833.32Zm203 .369c0 .836 1.078 3.228 2.396 5.315 1.318 2.088 4.246 7.476 6.508 11.973 5.797 11.531 17.504 22.192 24.369 22.192 3.18 0 5.731-2.939 5.711-6.579-.032-6.018-7.861-29.728-10.464-31.69-.561-.423-3.045-.515-5.52-.204-2.475.31-8.1-.132-12.5-.981-9.89-1.911-10.5-1.912-10.5-.026Zm-779.5 2.939c-5.5 1.827-11.771 4.088-13.936 5.023-4.817 2.081-10.714 6.467-10.078 7.496.257.415-.472 1.602-1.62 2.638-3.424 3.094-7.47 12.283-9.797 22.258-2.962 12.7-2.012 19.136 4.454 30.165 5.197 8.865 7.369 17.88 7.459 30.961l.05 7.5 2.234-3.582c1.229-1.97 3.134-5.052 4.234-6.847 1.1-1.796 3.406-5.145 5.124-7.443 4.503-6.023 9.48-16.445 14.148-29.628 4.746-13.405 5.205-15.057 9.209-33.139 3.544-16.008 3.925-24.731 1.19-27.206-1.006-.91-2.018-1.624-2.25-1.587-.231.037-4.921 1.563-10.421 3.391Zm192.389-.709c-.638 1.653-.84 6.541-.506 12.25l.555 9.5-2.162-7.75c-1.19-4.262-2.49-7.75-2.89-7.75-1.28 0-2.152 12.825-1.621 23.831.611 12.638 4.705 26.289 10.548 35.169 7.496 11.391 10.357 12.714 7.115 3.291-1.072-3.117-2.408-8.534-2.968-12.039-.559-3.504-1.422-7.132-1.917-8.062-2.049-3.852-6.135-19.582-5.85-22.52.222-2.297 1.46.963 4.491 11.83 5.717 20.5 11.772 37.198 15.818 43.628 9.579 15.22 16.077 24.87 16.748 24.871.413 0 .817-5.061.898-11.249l.149-11.25.736 10c.405 5.5 1.731 13.825 2.947 18.5 1.216 4.675 2.631 10.3 3.144 12.5 1.049 4.499 2.893 9.429 6.547 17.5 1.37 3.025 2.994 6.625 3.609 8 4.911 10.977 27.743 43.31 29.408 41.645.557-.556-3.362-12.509-4.638-14.145-2.281-2.926-10.01-30.792-9.846-35.5.219-6.296-2.685-22.896-6.124-35-2.714-9.556-10.564-25.383-15.016-30.278-3.866-4.25-4.369-4.076-7.967 2.763-1.415 2.688-2.095 3.339-2.091 2 .01-3.558 2.083-9.574 3.939-11.43 5.091-5.091 6.898-22.59 3.725-36.074-1.827-7.762-6.576-17.196-10.985-21.822-1.752-1.837-5.711-4.625-8.798-6.195-5.106-2.597-22.895-8.964-25.044-8.964-.491 0-1.37 1.238-1.954 2.75Zm-94.139 7.089c-4.128 6.407-4.526 8.272-2.184 10.216.861.715 2.274 2.682 3.139 4.372.866 1.69 2.063 3.388 2.662 3.772 1.445.93 4.285-1.749 7.292-6.88l2.451-4.183-2.168-4.318c-2.114-4.211-5.712-8.827-6.866-8.809-.317.005-2.263 2.628-4.326 5.83Zm-80.977-.254c-.378.597-1.602 6.271-2.719 12.609-1.117 6.337-2.897 14.399-3.955 17.914-1.058 3.516-2.416 8.867-3.018 11.892-.602 3.025-2.515 9.889-4.251 15.253-1.736 5.365-2.893 10.017-2.572 10.338 1.139 1.14 6.957-4.149 8.901-8.091 6.77-13.728 10.873-29.711 10.745-41.859-.099-9.448-1.923-19.963-3.131-18.056Zm151.797 6.596c-1.061.616-6.011 2.595-11 4.399a1605.14 1605.14 0 0 0-14.07 5.155l-5 1.877.239 4.444c.208 3.864 4.652 25.675 7.324 35.944.555 2.132 3.359 6.083 7.174 10.106 8.654 9.127 12.234 13.79 14.832 19.318l2.227 4.737 1.75-2.831c3.664-5.924 5.74-36.733 4.485-66.58l-.746-17.75-2.642.03c-1.454.017-3.511.535-4.573 1.151Zm-56.871 6.631c-.824.929-2.894 4.07-4.599 6.982-2.839 4.848-3.1 6.045-3.1 14.21v8.916l3.75 1.032c2.063.567 7.8 1.947 12.75 3.065 4.95 1.119 11.363 3.221 14.252 4.673 2.889 1.452 5.531 2.36 5.872 2.02.58-.58-.418-7.562-2.746-19.21-.549-2.75-1.95-7.139-3.111-9.754-1.922-4.325-2.797-5.08-9.69-8.36-11.385-5.419-11.671-5.496-13.378-3.574Zm-31.488 2.846c-4.009 1.942-7.991 4.603-8.849 5.912-1.771 2.704-7.362 25.132-7.362 29.534 0 3.52.552 3.562 6.124.46 4.044-2.251 14.048-5.161 24.814-7.217 3.873-.739 4.544-1.253 5.263-4.036.454-1.754.431-6.704-.051-11-.702-6.268-1.509-8.75-4.084-12.561-3.962-5.867-5.746-5.99-15.855-1.092Zm459.868 7.925c.048 1.165.285 1.402.604.605.289-.722.253-1.585-.079-1.917-.332-.332-.568.258-.525 1.312Zm20.921 4.306c-4.125 2.12-9.137 4.147-11.137 4.506-3.214.577-3.895 1.252-5.85 5.796-3.328 7.737-4.15 15.768-2.551 24.929 1.518 8.693 2.013 9.88 4.122 9.88.806 0 3.817.82 6.691 1.823 7.576 2.643 16.319 1.665 21.324-2.386 3.637-2.944 12.262-17.29 12.355-20.551.025-.887 1.11-2.687 2.411-4 2.656-2.68 4.336-6.886 2.75-6.886-.562 0-2.467 1.8-4.235 4-2.759 3.433-3.767 4-7.113 4-7.656 0-9.656-3.139-10.659-16.732l-.608-8.232-7.5 3.853Zm232.851 6.011c-.326 8.335-.559 9.188-3.288 12.036-4.26 4.444-8.774 4.241-13.752-.621-4.328-4.226-6.155-3.689-3.405 1 1.028 1.752 3.215 5.885 4.86 9.185 4.63 9.287 10.781 17.18 14.734 18.907 5.027 2.197 11.494 2.231 19.34.102 7.989-2.166 8.443-2.869 9.332-14.444.404-5.259.066-10.003-1.107-15.565-2.454-11.625-2.93-12.5-6.808-12.5-1.808 0-5.98-1.298-9.272-2.885-10.86-5.234-10.231-5.516-10.634 4.785Zm-128.629 13.85c-4.103 4.262-8.778 9.663-10.389 12-1.611 2.337-3.508 4.25-4.215 4.25-1.677 0-8.878 15.416-11.679 25-1.205 4.125-2.415 10.23-2.688 13.567l-.496 6.068 4.597 1.755c3.952 1.51 5.239 2.786 9.174 9.1 2.518 4.039 5.638 10.644 6.934 14.677 9.354 29.102 19.287 50.751 22.757 49.594 1.16-.387 1.73-107.025.652-122.067-.588-8.219-1.37-12.11-3.266-16.25-1.371-2.994-2.814-5.444-3.207-5.444-.393 0-4.071 3.488-8.174 7.75Zm23.713-4.629c-4.046 7.56-4.262 11.162-4.653 77.629-.214 36.512.002 64.25.501 64.25 2.93 0 12.241-18.309 18.052-35.5 9.363-27.696 14.018-36.257 21.294-39.168 3.813-1.526 3.871-1.628 3.871-6.853 0-12.381-3.21-22.405-11.201-34.979-3.625-5.705-23.084-26.931-25.032-27.306-.897-.173-2.172.694-2.832 1.927Zm-506.74 3.379c.02 1.65.244 2.204.498 1.231.254-.973.237-2.323-.037-3-.274-.677-.481.119-.461 1.769Zm421.805-1.476c0 .734.441 2.716.98 4.405 1.682 5.273 5.02 21.192 5.02 23.943 0 3.525 7.355 19.728 12.226 26.934 3.603 5.33 7.977 8.825 9.339 7.462.306-.306.957-3.192 1.446-6.412 1.137-7.49 5.151-19.603 11.466-34.606.864-2.053.529-2.082-8.477-.744-9.625 1.43-15.523-.625-20.953-7.3-2.271-2.791-4.817-6.526-5.659-8.3-1.832-3.862-5.388-7.414-5.388-5.382Zm151.174 5.726c-4.539 8.404-9.229 12.85-15.714 14.894-5.2 1.639-5.885 1.641-12.624.023-3.92-.94-7.38-1.457-7.689-1.147-.31.309.825 3.132 2.523 6.271 3.132 5.796 7.7 20.072 9.719 30.379.611 3.118 1.434 5.992 1.83 6.385 1.316 1.311 5.656-2.481 9.766-8.533 2.234-3.29 4.345-6.779 4.69-7.752.344-.974 2.194-5.145 4.109-9.27 2.5-5.382 3.842-10.183 4.754-17 .699-5.225 1.539-10.738 1.866-12.25 1.5-6.926 1.581-7.75.754-7.75-.483 0-2.277 2.587-3.984 5.75Zm-669.432-1.714c-6.112 1.028-16.996 7.112-20.126 11.25-1.337 1.768-2.942 5.134-3.567 7.48-1.308 4.918-1.879 16.723-.858 17.752.38.383 3.08-.655 6-2.307 6.159-3.484 10.728-4.395 22.267-4.438 4.587-.017 8.948-.408 9.691-.869 2.011-1.249 1.813-27.682-.216-28.967-1.677-1.061-6.514-1.025-13.191.099Zm22.258-.378c-3.423 1.305-4 3.623-4 16.058 0 12.319.003 12.335 2.565 13.309 1.411.536 6.248.986 10.75.999 9.621.029 15.601 1.211 21.382 4.227 2.308 1.204 4.518 1.868 4.911 1.475 1.081-1.081-1.435-19.491-3.105-22.721-1.894-3.663-5.358-6.334-12.901-9.951-5.95-2.854-16.314-4.649-19.602-3.396Zm427.186 15.839c-1.632 1.373-3.248 3.614-3.591 4.98-.342 1.365-1.887 4.629-3.433 7.253-1.546 2.623-3.642 7.02-4.658 9.77-1.017 2.75-2.198 5.468-2.625 6.041-1.662 2.227-3.378 16.885-1.867 15.951.549-.339 2.761-3.176 4.915-6.304 2.155-3.128 7.053-9.226 10.885-13.549 6.644-7.497 6.946-8.054 6.504-12-.62-5.522-2.37-14.639-2.81-14.639-.194 0-1.688 1.124-3.32 2.497Zm288.312 2.81c-.362 2.306-1.16 5.646-1.772 7.423-1.252 3.633-.724 4.523 10.605 17.89 3.207 3.784 6.688 8.537 7.736 10.562 3.069 5.933 4.048 5.678 3.309-.863-1.293-11.442-12.182-35.998-16.92-38.157-2.16-.984-2.339-.794-2.958 3.145Zm-858.653.308c-1.461.772-3.095 2.637-3.631 4.144-.537 1.508-2.373 4.482-4.08 6.61-1.708 2.128-2.86 4.266-2.56 4.75.299.485.067.881-.515.881-.582 0-1.06.682-1.06 1.514 0 .833-1.568 5.406-3.486 10.163-3.51 8.701-4.072 11.559-4.991 25.323-.703 10.514-2.295 19.649-4.446 25.5-1.01 2.75-2.174 7.025-2.587 9.5-.412 2.475-2.483 8.498-4.603 13.385-2.12 4.887-3.994 9.936-4.166 11.219-.172 1.284-1.417 3.553-2.766 5.042l-2.454 2.709 3.277-2.265c5.98-4.134 19.967-23.231 28.149-38.437 11.506-21.382 18.087-44.338 18.064-63.013-.008-6.521-.496-9.184-2.454-13.39-1.344-2.887-2.577-5.202-2.74-5.144-.163.058-1.491.738-2.951 1.509Zm83.615 9.135c-4.751 5.363-9.073 10.857-9.604 12.211-1.227 3.122-.508 6.041 3.333 13.539 3.862 7.538 9.862 14.196 15.995 17.75 5.245 3.04 5.66 3.134 7.804 1.778 1.239-.783.943-1.504-1.757-4.289-6.8-7.017-9.324-20.985-6.805-37.665 1.842-12.199 1.883-13.074.623-13.074-.523 0-4.838 4.387-9.589 9.75Zm96.994-6.5c4.56 20.831 2.79 38.847-4.648 47.318-4.31 4.909-2.578 5.847 4.822 2.611 7.224-3.158 13.202-9.526 17.528-18.671 3.342-7.063 3.533-10.237.926-15.346-3.134-6.144-15.248-18.129-18.351-18.155-.423-.004-.547 1.005-.277 2.243Zm-147.14 3.039c-2.533 1.418-10.176 10.614-16.1 19.371-9.672 14.299-23.351 57.63-28.204 89.34-1.36 8.882-1.317 21.269.07 20.806 1.179-.392 4.418-6.45 13.934-26.06 3.405-7.015 6.594-13.004 7.088-13.309.494-.305.898-1.472.898-2.592s.632-3.231 1.405-4.691c2.018-3.814 6.595-15.108 6.595-16.275 0-.544.853-2.877 1.896-5.184 4.375-9.678 5.424-12.322 5.816-14.657.227-1.354 1.896-7.204 3.708-13 7.235-23.144 7.883-25.784 7.263-29.607-.778-4.79-1.681-5.647-4.369-4.142Zm203.109 4.376c-.666 4.44 1.266 12.75 3.698 15.904.453.588 1.545 4.178 2.426 7.977 2.215 9.553 8.824 28.709 15.51 44.954 4.024 9.779 9.006 20.688 16.214 35.5 4.684 9.625 8.819 18.512 9.19 19.75.804 2.686 2.141 2.931 2.729.5.862-3.564-1.045-23.189-3.62-37.25-3.301-18.03-15.187-55.463-20.768-65.404-6.852-12.208-19.075-26.596-22.592-26.596-1.718 0-2.211.825-2.787 4.665Zm369.355.429c-2.709 1.532-14.584 16.759-18.448 23.656-1.926 3.438-3.646 6.25-3.822 6.25-1.082 0 1.583-5.675 6.302-13.421l5.455-8.953-3.148-2.813c-2.13-1.903-4.237-2.813-6.514-2.813-2.93 0-4.787 1.39-14.356 10.75-9.691 9.479-11.508 11.814-15.369 19.75l-4.378 9-.5 24.169c-.275 13.293-.741 24.409-1.035 24.702-.295.293-.376-5.183-.181-12.169.374-13.394-.591-23.304-2.325-23.882-.571-.191-2.311 3.597-3.866 8.417-1.555 4.82-3.743 10.788-4.861 13.263-1.119 2.475-2.372 5.85-2.784 7.5-.413 1.65-2.31 7.5-4.217 13-5.686 16.403-5.848 15.148 2.033 15.735 4.663.347 8.999 1.521 14.089 3.813 8.555 3.853 9.784 3.537 12.241-3.15 1.818-4.95 6.139-13.854 20.09-41.398 5.293-10.45 10.126-20.881 10.74-23.18.613-2.3 2.682-7.35 4.596-11.223 1.914-3.873 3.48-7.643 3.48-8.378 0-.735.661-2.21 1.468-3.278.808-1.067 1.483-2.547 1.5-3.287.018-.74.878-2.54 1.912-4 2.193-3.098 4.467-12.464 3.967-16.344-.287-2.221-.647-2.52-2.069-1.716Zm218.747-.135c-1.437 2.326.728 9.59 6.307 21.153 3.287 6.813 6.663 14.638 7.503 17.388 1.647 5.398 8.121 21.74 9.903 25 1.725 3.157 16.474 31.886 22.589 44 3.053 6.05 5.688 11.184 5.855 11.409.167.225 4.019-1.05 8.561-2.835 5.396-2.12 10.776-3.439 15.528-3.805 8.407-.648 8.245.099 2.605-12.044-1.858-4.001-3.806-9.184-4.329-11.517-.523-2.333-2.032-6.71-3.353-9.725-1.322-3.016-2.219-6.004-1.995-6.641.223-.637-.067-1.452-.646-1.809-.579-.358-1.053-1.669-1.053-2.914 0-1.244-.713-4.48-1.585-7.191-.872-2.71-1.782-5.552-2.021-6.314-.349-1.109-.832-1.028-2.415.405-1.81 1.638-1.979 3.115-1.979 17.303 0 8.531-.302 15.21-.67 14.841-.369-.368-.974-10.681-1.346-22.916-.588-19.354-.955-22.968-2.824-27.789-3.149-8.125-9.179-16.839-15.194-21.958a520.597 520.597 0 0 1-10.072-8.835c-5.326-4.827-6.772-4.874-12.632-.412l-3.238 2.466 3.573 6.64c2.352 4.372 2.774 5.62 1.238 3.653-4.017-5.139-14.866-16.95-16.316-17.761-.762-.427-1.659-.333-1.994.208Zm-4.446 1.624c.048 1.165.285 1.402.604.605.289-.722.253-1.585-.079-1.917-.332-.332-.568.258-.525 1.312Zm-705.579 2.827c-3.3.755-8.7 2.667-12 4.249-5.61 2.689-6.02 3.12-6.312 6.639-.399 4.801 1.889 12.655 5.772 19.817l3.044 5.614 13.273 3.691c7.3 2.029 13.981 3.418 14.846 3.086 2.82-1.082 3.348-40.368.58-43.136-1.191-1.191-13.939-1.165-19.203.04Zm28.236-.16c-3.039 2.308-3.736 6.779-3.736 23.955 0 14.676.231 17.243 1.641 18.275 1.878 1.373 4.051 1.027 19.206-3.057 7.865-2.12 10.711-3.344 11.865-5.106 2.511-3.833 7.26-18.555 7.275-22.553.012-3.566-.259-3.872-5.985-6.763-9.922-5.009-26.5-7.611-30.266-4.751Zm502.854 17.5c-1.425 6.885-3.509 21.664-3.111 22.062.242.243 2.596-1.346 5.231-3.531 2.634-2.184 6.027-4.768 7.54-5.741 1.513-.974 2.75-2.126 2.75-2.56 0-.435-1.555-2.746-3.455-5.135-7.209-9.064-8.036-9.535-8.955-5.095Zm137.366 1.335c-4.464 4.79-7.454 8.826-6.841 9.235.212.142 3.585 2.828 7.496 5.969 3.912 3.141 7.399 5.711 7.75 5.711 1.948 0-1.141-21.971-3.433-24.415-.502-.535-2.564.916-4.972 3.5Zm-586.01 7.495c-3.113 4.614-6.926 8.821-9.741 10.75-8.458 5.797-8.84 6.42-9.629 15.729-1.004 11.853-5.259 30.183-8.898 38.34-3.498 7.837-4.403 7.665-2.174-.413 6.137-22.244 9.062-39.584 7.795-46.205-.951-4.969-2.487-5.373-12.638-3.326-5.039 1.016-11.403 2.606-14.143 3.535-4.57 1.549-5.088 2.053-6.263 6.099-1.443 4.967-3.183 22.597-3.346 33.911-.13 8.975-1.446 5.918-1.785-4.143-.624-18.564-1.94-32.102-3.247-33.404-1.317-1.312-4.189-2.135-20.753-5.948-7.241-1.667-7.412-1.661-9.414.34-1.502 1.502-1.995 3.192-1.873 6.417.363 9.593 4.22 32.661 6.644 39.737 3.06 8.932 2.781 12.59-.419 5.501-3.91-8.66-8.747-27.366-9.568-37-1.108-13.013-1.044-12.858-7.067-17.006-6.203-4.272-12.711-11.223-15.443-16.494l-1.813-3.5-1.982 4.592c-3.375 7.818-5.436 19.23-4.999 27.679.339 6.564 1.044 9.086 4.679 16.729 6.27 13.185 9.662 18.348 19.861 30.227 8.173 9.519 24.662 21.215 26.839 19.037.289-.288-1.071-3.428-3.022-6.977-1.951-3.549-3.547-7.068-3.547-7.82 0-2.087 1.413-.172 4.945 6.699 3.902 7.589 8.353 12.056 14.886 14.94l4.999 2.206.708-2.656.709-2.656.96 2.75c.528 1.512 1.26 2.746 1.626 2.741.367-.006 3.005-1.351 5.863-2.99 6.017-3.45 10.973-9.512 15.435-18.88 1.735-3.641 3.355-6.054 3.598-5.361.244.692-1.17 4.195-3.142 7.784-5.208 9.474-4.702 11.077 2.541 8.044 3.415-1.431 12.471-8.883 18.872-15.53 9.886-10.265 19.158-24.93 22.58-35.712 3.361-10.588 3.208-19.334-.675-38.596-.749-3.712-1.695-6.75-2.103-6.75-.407 0-3.043 3.411-5.856 7.58Zm650.841-3.818c2.466 5.521 3.931 6.964 1.766 1.738-.912-2.2-2.11-4.45-2.663-5-.554-.55-.15.918.897 3.262Zm-189.806 9.571c-2.485 1.192-5.746 3.005-7.246 4.029-3.336 2.278-9.241 11.803-11.758 18.963-1.654 4.705-4.977 22.176-4.977 26.164 0 3.039 3.561 1.411 6.26-2.861 3.541-5.605 10.057-13.005 13.796-15.668 2.588-1.843 15.962-6.275 16.702-5.535.158.157-1.837 1.097-4.432 2.088-5.686 2.172-14.889 9.016-18.326 13.631-7.517 10.091-11.948 18.737-11.97 23.356-.012 2.461.707 3.412 4.004 5.295 9.653 5.513 13.704 17.449 12.61 37.147-.354 6.357-.921 13.423-1.261 15.703-.532 3.567-.339 4.234 1.383 4.781 6.528 2.072 35.295-9.698 49.039-20.064 7.336-5.534 11.125-10.314 12.835-16.194 1.455-5.008 1.44-5.677-.22-9.527-.982-2.278-2.767-5.266-3.967-6.641-6.868-7.872-15.94-24.582-21.132-38.925-1.896-5.237-3.968-10.15-4.605-10.917-.851-1.025-2.758-1.262-7.187-.893l-6.029.504 5-1.72c2.942-1.013 5.134-2.409 5.325-3.393.567-2.921-5.919-15.482-9.634-18.655-4.207-3.593-7.76-3.76-14.21-.668Zm102.943 1.75c-4.179 4.525-7.125 10.122-8.214 15.599-.6 3.019-.417 3.26 3.579 4.707 7.646 2.768 13.759 4.611 15.296 4.611 4.766 0 17.155 10.099 21.467 17.5 4.803 8.245 4.794 8.235 5.933 6.5 1.427-2.174 1.237-7.106-.587-15.303-3.065-13.762-6.46-22.76-10.117-26.808-4.568-5.056-12.865-9.733-18.681-10.53-4.517-.62-4.765-.513-8.676 3.724Zm-11.222 22.714c-.838.937-2.285 4.403-3.217 7.703-2.909 10.306-11.575 26.875-21.444 41-5.2 7.443-7.041 10.73-7.041 12.573 0 3.358 5.618 13.235 9.662 16.988 10.413 9.66 27.772 18.662 44.338 22.991 8.916 2.331 10.562 1.582 10.281-4.674-1.454-32.323-.232-40.516 7.102-47.634 2.211-2.145 5.225-4.524 6.697-5.286 1.473-.761 2.944-2.078 3.269-2.926.327-.853-1.517-5.672-4.129-10.787-3.594-7.039-6.462-10.976-12.021-16.501-7.762-7.714-11.401-9.965-20.199-12.496-9.262-2.664-11.615-2.833-13.298-.951Zm-685.964 10.867c-.413.64-1.4 4.24-2.196 8-3.193 15.096-5.728 24.896-8.984 34.729-1.879 5.676-4.135 14.773-5.012 20.214-.878 5.441-1.886 11.468-2.24 13.393-.353 1.925-.551 3.885-.439 4.355.112.471-.278 1.436-.867 2.145-.589.709-.971 1.674-.85 2.145.121.47-.144 5.112-.588 10.314-.444 5.203-.782 17.353-.751 27 .056 17.418.569 21.778 5.006 42.541 1.057 4.95 1.934 9.675 1.948 10.5.014.825 1.684 6.417 3.711 12.426 2.027 6.01 4.061 13.231 4.52 16.048.458 2.817 1.533 6.675 2.389 8.574l1.555 3.452-.445-4.5c-1.373-13.874-2.71-59.496-2.191-74.757.332-9.759 1.714-26.968 3.071-38.243 3.165-26.299 4.759-52.916 4.491-75.002-.223-18.357-.857-25.309-2.128-23.334Zm-75.32 5.465c-4.495 7.121-19.587 28.24-22.312 31.223-1.433 1.569-4.856 3.864-7.606 5.1-5.263 2.365-11.653 7.68-22.473 18.69-4.617 4.698-7.765 7.011-10.758 7.902-4.162 1.241-6.126 3.76-4.713 6.046 1.39 2.251 6.603 3.664 10.326 2.799 3.726-.867 14.118-1.214 14.118-.472 0 .556-5.62 10.981-11.902 22.083-2.801 4.95-5.094 9.715-5.096 10.589-.001.875 1.136 2.108 2.526 2.742 2.44 1.112 2.72.855 8.052-7.411 3.038-4.709 5.923-9.612 6.41-10.894.488-1.282 1.39-2.644 2.008-3.025.616-.381-2.281 5.911-6.44 13.982-7.751 15.049-8.716 18.135-5.994 19.18 3.176 1.219 6.155-1.609 11.384-10.807 2.925-5.146 6.402-11.269 7.727-13.606 4.302-7.59 3.613-4.485-.887 4-9.191 17.328-10.398 22.925-4.611 21.386 3.77-1.004 4.239-1.633 9.767-13.136 5.278-10.983 8.52-13.562 3.635-2.892-3.013 6.581-3.122 7.392-.996 7.392 1.683 0 8.417-6.387 8.417-7.983 0-1.376 8.922-15.856 10.324-16.755 1.928-1.236 6.664-7.989 8.227-11.73 1.859-4.448 1.817-10.366-.131-18.532-1.328-5.569-1.39-8.72-.422-22 1.05-14.431 2.892-28.778 4.525-35.25.98-3.886-.077-3.416-3.104 1.379Zm294.051-2.531c1.377 5.077 3.755 18.81 5.086 29.364 1.811 14.361 1.78 25.363-.084 30.538-1.907 5.295-1.849 12.349.142 17.128.887 2.13 4.616 7.922 8.285 12.872 3.67 4.95 8.101 11.925 9.847 15.5 3.141 6.43 6.743 9.552 9.24 8.009.858-.53.726-1.741-.505-4.614-2.832-6.615-4.606-11.924-3.637-10.885 1.242 1.33 8.795 16.417 9.62 19.214.36 1.223 1.79 3.117 3.177 4.208 2.091 1.644 2.861 1.777 4.503.776 2.849-1.738 1.957-5.087-5.124-19.224-3.311-6.608-6.019-12.632-6.019-13.385 0-.754 2.486 3.478 5.525 9.404 7.115 13.877 12.275 22.206 14.219 22.952.85.326 2.493-.2 3.651-1.17s2.19-1.779 2.294-1.797c.272-.047-9.962-20.045-13.34-26.067a6221.57 6221.57 0 0 1-4.673-8.343c-1.003-1.795-1.655-3.432-1.449-3.638.206-.206 2.799 3.773 5.763 8.843 8.142 13.927 12.315 19.692 14.26 19.705 4.542.031-.867-15.138-10.727-30.083l-3.566-5.405 5.092-.305c2.8-.167 7.327.351 10.061 1.152 4.847 1.421 5.042 1.396 7.93-1.034 1.628-1.37 2.96-3.114 2.96-3.876 0-1.435-4.717-4.305-8.17-4.97-1.085-.209-2.926-1.637-4.089-3.173-1.164-1.537-4.057-4.699-6.428-7.027-2.372-2.328-4.313-4.691-4.313-5.25 0-.559-.451-1.017-1.002-1.017-.551 0-2.688-1.729-4.75-3.842-2.122-2.176-5.917-4.62-8.748-5.634-6.763-2.423-8.115-3.806-20.064-20.524-12.223-17.101-15.809-21.51-14.967-18.402Zm-71.863 5.543c-2.209 24.351-.485 61.012 4.849 103.082 2.501 19.732 2.899 34.687 1.65 62.046-1.733 37.959-1.799 40.66-.977 40.152.41-.253 1.48-3.939 2.378-8.191.899-4.251 2.026-8.63 2.505-9.73 2.066-4.742 11.542-47.641 12.997-58.838 2.03-15.624.593-33.834-4.945-62.662-1.11-5.775-2.271-12.65-2.58-15.277-.31-2.627-1.726-8.702-3.146-13.5-1.421-4.798-2.973-10.748-3.449-13.223-1.444-7.505-7.097-28.442-7.927-29.359-.428-.472-1.038 2.003-1.355 5.5Zm-141.001 6.966c-.243.766-.685 10.843-.981 22.393-.296 11.55-1.186 24.825-1.978 29.5-.792 4.675-1.724 14.35-2.07 21.5-.347 7.15-1.338 20.2-2.202 29-1.787 18.181-1.995 54.511-.42 73 .563 6.6 1.312 24.825 1.665 40.5s.721 28.6.817 28.722c.394.501 13.73-18.832 18.5-26.821 10.885-18.229 15.882-41.284 16.8-77.511.565-22.28-.347-29.349-7.146-55.39-6.288-24.08-9.871-38.589-12.101-49-1.238-5.775-3.458-14.775-4.934-20s-3.065-10.998-3.532-12.829c-1.007-3.954-1.812-4.973-2.418-3.064Zm134.945 1c-1.947 5.452-12.464 46.388-15.516 60.393-.958 4.4-3.326 13.85-5.262 21-8.033 29.679-8.278 31.243-8.211 52.5.051 16.075.54 22.573 2.789 37 4.402 28.242 7.059 34.938 24.235 61.077 9.644 14.677 9.154 15.058 9.351-7.265.093-10.58.591-27.354 1.105-37.275 1.775-34.207 2.173-61.813 1.07-74.037-.595-6.6-1.558-19.425-2.138-28.5-.581-9.075-1.757-21.9-2.614-28.5-.857-6.6-1.95-22.074-2.428-34.387-.829-21.298-1.249-25.178-2.381-22.006Zm-129.498 1.543c-.069 2.849 6.282 29.373 9.901 41.35 1.579 5.225 4.1 13.55 5.602 18.5 1.503 4.95 3.724 12.825 4.938 17.5a1661.169 1661.169 0 0 0 4.809 18c3.191 11.645 7.238 28.162 10.186 41.573 1.218 5.541 2.718 10.941 3.333 12 1.031 1.776 1.121 1.722 1.149-.701.016-1.445.678-4.179 1.47-6.075.792-1.895 1.956-6.563 2.587-10.372.631-3.809 2.465-13.675 4.077-21.925 3.188-16.32 5.449-49.09 4.106-59.5-.618-4.789-1.098-5.694-3.71-7.001-5.02-2.513-16.846-10.131-19.5-12.562-1.375-1.259-5.2-4.65-8.5-7.536-3.3-2.885-6.418-5.956-6.928-6.824-.51-.867-2.985-4.285-5.5-7.594s-5.336-7.134-6.27-8.5c-1.64-2.399-1.699-2.41-1.75-.333Zm122.204 2.161a894.712 894.712 0 0 0-6.217 8.75c-5.51 7.865-21.567 22.108-32.039 28.421-5.225 3.15-10.056 6.806-10.735 8.123-1.525 2.956-1.603 11.579-.255 27.895 1.791 21.664 2.906 29.116 6.496 43.402 1.922 7.646 3.514 15.296 3.538 17 .024 1.704.637 5.798 1.364 9.098l1.32 6 1.65-3.752c.908-2.063 2.326-7.013 3.151-11 .826-3.986 2.808-11.748 4.405-17.248 1.598-5.5 3.418-12.7 4.045-16 1.357-7.147 5.874-24.42 10.721-41 7.475-25.573 9.594-33.428 12.274-45.5 1.526-6.875 3.105-13.738 3.509-15.25 1.006-3.768.035-3.449-3.227 1.061Zm433.509 16.439c-1.696 1.311-2.633 6.387-5.308 28.75-1.764 14.752-1.251 49.595.993 67.372.772 6.12 1.68 14.503 2.017 18.628.74 9.05 2.16 18.909 4.177 29 4.431 22.166 5.419 32.992 4.747 52.043-.552 15.673-.396 19.427 1.006 24.25.912 3.139 2.056 5.707 2.541 5.707.899 0 10.353-18.761 15.91-31.57 5.446-12.555 8.546-31.013 9.646-57.43.332-7.975 1.292-24.85 2.133-37.5 1.454-21.855 1.217-39.516-.567-42.403-.613-.992-2.231-.816-7.526.82-7.237 2.235-12.06 2.658-12.999 1.14-.32-.519.412-5.581 1.627-11.25 4.914-22.93.7-41.789-10.473-46.861-4.982-2.262-5.804-2.334-7.924-.696Zm164.499.329c-3.679 1.609-7.857 7.58-10.44 14.921-2.47 7.02-2.387 21.592.183 32.313 1.096 4.573 1.993 9.154 1.993 10.181 0 2.464-3.409 2.961-8.5 1.238-2.2-.745-5.918-1.72-8.263-2.166-3.869-.738-4.302-.616-4.689 1.311-1.419 7.056-1.33 15.074.443 40.123 1.089 15.4 1.989 32.725 1.999 38.5.051 31.256 5.563 52.675 20.832 80.957l4.566 8.458 1.556-3.458c1.278-2.839 1.514-7.271 1.323-24.803-.128-11.74.18-23.215.685-25.5.505-2.285 1.666-10.004 2.58-17.154.915-7.149 2.304-16.149 3.088-20 5.305-26.074 6.855-48.957 5.995-88.5-.734-33.725-1.689-45.8-3.726-47.09-1.973-1.249-5.858-.979-9.625.669Zm-272.931 6.332c-2.895.352-6.193 1.495-7.5 2.598-4.507 3.805-12.774 11.553-12.559 11.771.27.273-4.268 6.766-5.92 8.47-1.767 1.823-3.381 1.528-2.728-.5.459-1.427.373-1.482-.466-.298-.565.799-.835 1.764-.6 2.145.51.826-2.019 1.903-4.467 1.903-2.09 0-6.093 4.023-6.093 6.123 0 2.464 2.572 5.212 5.115 5.467 2.594.26 16.313-3.057 19.121-4.622 4.322-2.409 4.865-1.071 1.735 4.282-6.317 10.807-11.948 22.755-12.577 26.686-.616 3.857-.52 4.064 1.892 4.064 2.634 0 4.906-3.014 10.743-14.25 1.357-2.613 2.822-4.75 3.254-4.75.433 0 .389.788-.097 1.75-7.711 15.26-12.281 25.522-12.006 26.962.416 2.183 4.369 2.907 6.448 1.182.835-.693 2.39-2.865 3.456-4.827 1.065-1.962 2.365-4.242 2.888-5.067.524-.825 2.123-4.079 3.553-7.23 1.431-3.152 3.031-5.996 3.557-6.321.525-.324-.222 2.029-1.662 5.231-2.692 5.987-7.42 17.995-7.42 18.843 0 .262.948.477 2.107.477 1.546 0 1.939.439 1.475 1.648-.462 1.203.218.991 2.524-.787 2.134-1.646 4.43-5.341 7.084-11.398 2.159-4.93 4.421-10.088 5.026-11.463.869-1.977 1.183-2.148 1.501-.82.222.924-.749 4.559-2.157 8.078-3.36 8.399-3.269 9.093.874 6.648 3.38-1.994 9.566-10.33 9.566-12.89 0-.72 1.665-3.818 3.701-6.884 2.035-3.066 5.179-8.963 6.987-13.104 3.117-7.137 3.287-8.152 3.284-19.528-.001-6.6-.333-12.495-.737-13.1-1.087-1.628-4.414-3.198-11.452-5.404-6.473-2.03-8.605-2.162-17.45-1.085Zm376.667-.241c-6.142 1.177-13.114 3.601-15.188 5.281-2.117 1.715-2.249 2.51-2.076 12.589.257 14.984 1.46 19.564 8.42 32.051 3.344 6 7.187 13.233 8.539 16.073 3.248 6.824 5.481 8.847 8.174 7.406 1.899-1.016 1.944-1.349.668-4.966-.753-2.132-2.081-5.255-2.953-6.941-1.794-3.469-2.011-5.163-.662-5.163.508 0 1.461 1.688 2.119 3.75.658 2.063 2.55 6.45 4.205 9.75 1.656 3.3 3.527 7.117 4.16 8.481.876 1.89 2.037 2.55 4.872 2.768 3.333.256 3.723.039 3.723-2.107 0-2.105-5.992-16.251-10.739-25.353-.921-1.765-1.449-3.436-1.173-3.712.276-.276 3.854 6.251 7.951 14.503 7.781 15.68 9.361 17.384 13.831 14.987 2.45-1.308 2.32-1.774-4.51-16.067-4.54-9.492-5.01-10.433-8.64-17l-1.933-3.5 2.07 2.5c1.133 1.375 4.333 6.576 7.103 11.557 2.77 4.981 5.67 9.925 6.45 10.986 1.38 1.889 1.45 1.891 3.48.053 1.52-1.374 1.91-2.575 1.45-4.486-.81-3.398-6.18-14.447-9.66-19.884-5.52-8.624-7.26-14.447-3.46-11.538 2.55 1.948 17.78 6.445 19.73 5.826 2.02-.639 6.05-5.065 6.05-6.636 0-.469-3.09-2.408-6.87-4.31-5.96-3.002-12.13-8.294-12.13-10.401 0-1.74-11.86-12.657-15.457-14.229-4.309-1.883-13.412-3.06-17.544-2.268Zm-761.842 6.33c0 1.375.227 1.938.504 1.25.278-.687.278-1.812 0-2.5-.277-.687-.504-.125-.504 1.25Zm578.842 12c0 .55.477 1 1.059 1s.781-.45.441-1-.816-1-1.059-1-.441.45-.441 1Zm-17 15.579c-3.025 1.881-7.75 4.361-10.5 5.511-7.416 3.102-11.187 8.542-12.463 17.981-1.721 12.725-3.894 34.622-5.451 54.929-.823 10.725-2.298 29.85-3.277 42.5-1.973 25.478-2.113 30.595-.959 35 .678 2.588.605 2.772-.532 1.337a44.1 44.1 0 0 1-2.45-3.5c-.994-1.613-1.523-1.023-4.347 4.851l-3.214 6.688 2.993 7.812c1.646 4.297 3.152 8.682 3.347 9.745.326 1.778.596 1.708 3.354-.861 1.649-1.536 4.324-3.836 5.943-5.11l2.945-2.317-3.041-4.892c-2.832-4.555-5.598-12.019-3.614-9.753 1.466 1.674 10.671 15.505 12.207 18.34.97 1.792 1.548 6.72 1.77 15.097.181 6.84.5 12.607.709 12.816.804.804 4.156-3.843 5.732-7.949 3.032-7.897 8.825-28.191 10.791-37.804 1.068-5.225 3.09-13.434 4.493-18.242 1.403-4.808 2.792-11.108 3.087-14 .294-2.892.732-7.058.973-9.258 2.452-22.415 2.396-108.022-.079-120.25-.598-2.958-1.839-2.762-8.417 1.329Zm28.504-2.585c-.991 1.603-2.481 21.752-3.18 43.006-.63 19.149.925 64.997 2.797 82.5 1.015 9.479 4.609 26.084 6.969 32.192.597 1.545 2.13 7.533 3.407 13.308 2.715 12.283 10.655 35.58 12.885 37.81 2.211 2.211 2.462.931 2.816-14.342l.302-13.031 4.852-6.454c8.869-11.795 10.169-15.152 9.999-25.811-.082-5.131-.861-17.731-1.732-28-.87-10.27-2.051-25.197-2.624-33.172-3.363-46.828-4.043-55.017-4.981-60-1.382-7.348-5.892-16.202-9.014-17.698-1.375-.658-6.55-3.358-11.5-6-4.95-2.641-9.296-4.938-9.658-5.105-.362-.166-.965.192-1.338.797Zm-391.504 6.888c0 .55.45 1.278 1 1.618.55.34 1 .168 1-.382s-.45-1.278-1-1.618c-.55-.34-1-.168-1 .382Zm-400.362 1.618c.317.825.698 1.5.847 1.5.148 0 .83-.675 1.515-1.5 1.039-1.252.899-1.5-.846-1.5-1.448 0-1.914.461-1.516 1.5Zm995.863.5c.34.55.81 1 1.06 1 .24 0 .44-.45.44-1s-.48-1-1.06-1c-.58 0-.78.45-.44 1ZM7.899 488.032c0 .857.457 1.276 1.016.931.559-.346.758-1.047.44-1.559-.856-1.387-1.456-1.129-1.456.628Zm417-.118c0 .793.45 1.719 1 2.059.55.34 1-.309 1-1.441 0-1.132-.45-2.059-1-2.059s-1 .648-1 1.441Zm593.081 1.142c.05 1.165.28 1.402.6.605.29-.722.25-1.585-.08-1.917-.33-.332-.57.258-.52 1.312Zm-980.581 3.417c-.34.55-.168 1 .382 1s1.278-.45 1.618-1c.34-.55.168-1-.382-1s-1.278.45-1.618 1Zm147.043 33.231c-.322 2.348-1.017 10.119-1.543 17.269-1.001 13.607-2.578 23.132-6.095 36.82-2.359 9.185-2.24 17.49.504 35.18.854 5.5 1.568 14.275 1.587 19.5.03 8.213 1.037 13.539 2.264 11.971.202-.259 2.455-7.671 5.005-16.471 5.277-18.211 6.801-30.476 6.799-54.717-.002-20.71-1.548-36.272-4.719-47.515-1.902-6.742-3.071-7.368-3.802-2.037Zm64.119-2.481c-.93 1.531-3.658 14.007-4.756 21.75-2.032 14.332-2.277 44.042-.476 57.722 2.003 15.222 3.254 20.891 6.021 27.278 1.191 2.75 2.734 7.587 3.429 10.75.695 3.163 1.681 5.75 2.192 5.75.51 0 .928-4.503.928-10.007 0-9.402 1.79-24.461 3.982-33.493 1.418-5.844 1.228-14.431-.445-20.068-2.612-8.808-4.605-19.712-5.562-30.432-2.313-25.91-3.47-32.282-5.313-29.25Zm-50.41 37.75c.011 2.2.216 2.982.455 1.738.239-1.244.23-3.044-.02-4s-.446.062-.435 2.262Zm680.827 32.083c.048 1.165.285 1.402.604.605.289-.722.253-1.585-.079-1.917-.332-.332-.568.258-.525 1.312ZM262.54 603.309c-3.895 13.116-4.547 46.513-1.099 56.279 2.13 6.034 5.851 20.953 8.95 35.885 2.734 13.177 6.266 27.189 6.428 25.5.052-.55.539-4.825 1.081-9.5 1.936-16.687 3.027-48.209 2.031-58.664-1.869-19.612-9.445-48.184-13.982-52.727-1.852-1.855-1.918-1.793-3.409 3.227Zm-93.418-2.586c-2.185 2.673-8.122 19.914-10.777 31.297-2.295 9.843-2.866 14.955-3.232 28.953-.627 23.986 2.135 63.571 4.081 58.5 1.089-2.836 9.705-38.954 9.716-40.726.005-.976 1.58-7.37 3.5-14.21 3.289-11.722 3.489-13.309 3.489-27.677 0-15.567-1.219-28.332-3.259-34.137-1.24-3.526-1.943-3.926-3.518-2Zm681.147.91c-.564.737-1.845 3.59-2.847 6.34-1.001 2.75-2.642 6.179-3.647 7.619-1.004 1.441-2.253 3.741-2.774 5.112-.853 2.244-.505 2.805 3.475 5.61 2.433 1.715 4.423 3.577 4.423 4.138 0 .562.578 1.021 1.284 1.021 1.185 0 5.71-10.145 7.235-16.219.655-2.609-1.726-9.242-4.709-13.121-1.154-1.501-1.605-1.593-2.44-.5Zm7.719 20.156c-2.73 5.64-2.736 14.849-.02 32.684 3.615 23.742 4.868 36.197 4.9 48.715.036 14.128.329 14.571 9.645 14.571 9.582 0 14.813-4.893 16.641-15.565 1.931-11.274-1.018-27.936-7.891-44.592-1.9-4.605-3.22-8.607-2.933-8.894.991-.991-16.427-31.235-17.989-31.235-.145 0-1.204 1.942-2.353 4.316Zm-129.089 2.361c-5.987 9.606-9.868 16.557-13.304 23.823-3.446 7.288-4.263 9.72-7.72 23-1.146 4.4-2.498 9.575-3.006 11.5-.507 1.925-.933 7.613-.946 12.641-.023 8.725.126 9.358 3.276 13.929 4.346 6.306 7.163 8.224 13.2 8.986 4.137.522 5.449.278 7.599-1.416 2.512-1.979 2.622-2.522 3.296-16.344.924-18.934 2.191-31.121 5.152-49.59 1.349-8.411 2.453-17.003 2.453-19.092 0-3.739-3.676-12.202-5.544-12.765-.526-.158-2.531 2.24-4.456 5.328Zm-576.406 1.982c-3.683 5.012-11.226 18.59-13.244 23.841-9.119 23.725-12.716 48.36-10.222 70 .946 8.216 4.611 28.236 5.407 29.548.184.301 1.068 4.782 1.966 9.958 2.211 12.74 6.764 26.253 11.862 35.198 4.631 8.127 22.457 31.025 23.601 30.318 1.07-.661.157-9.278-1.644-15.522-2.444-8.473-2.391-28.78.105-40 .809-3.635 5.246-18.109 8.736-28.5 4.697-13.983 5.059-16.126 5.068-30 .006-10.485-.616-16.289-3.216-30-1.773-9.35-3.564-18.35-3.979-20l-.757-3-.714 4c-.738 4.128-4.548 20.487-11.63 49.935-4.06 16.88-4.075 17.016-4.7 42.5-.765 31.179-1.813 28.218-3.162-8.935-.529-14.575-1.485-37.075-2.124-50-1.334-26.994-.781-50.37 1.513-63.89.877-5.164 1.391-9.593 1.143-9.841-.249-.248-2.052 1.728-4.009 4.39Zm125.973-3.767c-.377.609-.449 1.49-.16 1.958.289.467 1.493 6.88 2.674 14.25 2.596 16.187 2.715 31.85.484 63.823-.861 12.332-1.565 27.68-1.565 34.106 0 12.611-1.812 37.738-2.858 39.637-.353.642-.752-9.099-.886-21.646-.172-16.133-.694-24.818-1.784-29.666-.848-3.77-2.442-11.354-3.543-16.854-2.419-12.082-10.371-43.674-12.358-49.098l-1.43-3.902-.142 4.5c-.199 6.313-.848 11.758-2.027 17-1.543 6.856-2.917 23.272-2.946 35.185-.036 14.932 1.36 20.996 12.279 53.315 2.353 6.965 3.132 11.262 3.447 19 .406 9.984.191 11.315-4.274 26.5-3.302 11.232-3.747 15.077-1.82 15.719 2.5.834 22.236-24.626 28.077-36.219 5.02-9.966 9.224-25.425 12.779-47 3.071-18.632 3.618-24.3 3.573-37.023-.05-13.91-1.416-25.953-4.191-36.929a252.491 252.491 0 0 1-1.962-8.548c-.517-2.475-2.288-7.255-3.937-10.623-1.648-3.367-2.997-6.478-2.997-6.912 0-1.19-8.693-15.558-11.388-18.823-1.497-1.814-2.61-2.454-3.045-1.75Zm472.235 7.019c-6.957 4.411-9.403 9.459-12.215 25.2-3.505 19.626-4.881 35.296-4.362 49.67.388 10.731.882 13.813 3.162 19.719 2.678 6.936 9.486 15.5 12.321 15.5.711 0 1.292.48 1.292 1.067 0 1.271-3.463.323-6.807-1.863-2.565-1.678-7.559-8.553-8.578-11.812-.574-1.836-1.708-2.196-8.77-2.785-4.46-.372-8.335-.451-8.61-.176-.275.275.875 6.028 2.555 12.785 4.724 18.997 4.88 24.544.233 8.284-2.201-7.7-4.546-16.194-5.213-18.875-.841-3.386-2.549-6.287-5.592-9.5-2.556-2.699-4.098-3.792-3.703-2.625.373 1.1 1.073 5.046 1.557 8.769.483 3.723 1.297 7.551 1.809 8.508.511.956 1.608 4.21 2.436 7.231.829 3.021 2.691 9.317 4.138 13.992 1.447 4.675 2.769 8.95 2.937 9.5.168.55.568 1.675.888 2.5 1.86 4.789 3.737 13.801 4.789 23 1.253 10.951.719 30.906-.983 36.75-1.578 5.418-.272 3.686 3.769-5 4.465-9.599 5.989-11.181 12.421-12.901 4.118-1.102 5.367-1.042 9.394.45 2.553.947 4.858 1.506 5.121 1.244.262-.263-.552-3.231-1.811-6.595-2.513-6.72-3.05-19.11-1.092-25.186.579-1.794 2.235-10.462 3.68-19.262 1.446-8.8 2.867-16.388 3.159-16.862.291-.474-.057-1.224-.774-1.667-.972-.6-.532-1.454 1.725-3.354 1.811-1.524 3.992-5.075 5.425-8.833 2.092-5.485 2.393-7.937 2.367-19.284-.024-10.444-.444-14.278-2.139-19.5-5.721-17.635-6.81-23.937-7.328-42.419-.31-11.025-.901-18.05-1.539-18.261-.569-.189-3.117.977-5.662 2.591Zm85.805-1.329c-.334.87-.607 8.41-.607 16.756 0 8.347-.466 16.747-1.036 18.669-.57 1.921-1.664 6.418-2.43 9.993-.766 3.575-2.352 9.152-3.524 12.392-2.792 7.724-4.05 19.388-3.031 28.108.975 8.345 2.772 12.698 8.712 21.109 1.266 1.793 1.976 3.948 1.677 5.091-.285 1.091.379 5.767 1.476 10.391 4.773 20.12 6.021 39.45 3.477 53.82-.541 3.057-.407 3.331 1.287 2.64 4.647-1.896 9.991-1.75 14.56.398 4.149 1.95 4.991 2.974 8.635 10.498 4.428 9.143 6.779 11.921 4.506 5.325-2.265-6.574-3.382-19.281-2.303-26.177 3.697-23.61 4.832-28.663 9.064-40.345 1.046-2.888 1.628-5.25 1.294-5.25-.335 0-.108-.604.505-1.342.612-.738.848-1.607.524-1.932-.324-.324.383-3.208 1.571-6.408 5.75-15.481 8.976-28.318 7.116-28.318-2.633 0-7.874 6.207-9.065 10.736-.689 2.62-2.496 9.264-4.017 14.764-1.52 5.5-3.811 14.668-5.09 20.372-1.28 5.705-2.473 9.933-2.652 9.396-.179-.537.618-5.205 1.771-10.372 3.564-15.97 7.054-34.149 6.636-34.567-.219-.219-4.029-.095-8.467.275l-8.069.673-2.036 4.734c-1.121 2.604-3.64 6.142-5.599 7.862-3.006 2.639-4.298 3.102-8.277 2.967-3.936-.134-4.15-.229-1.299-.576 4.179-.508 9.318-4.288 12.225-8.992 6.783-10.975 7.679-39.399 2.294-72.772-2.894-17.935-5.405-23.651-12.503-28.461-5.046-3.419-6.464-3.701-7.325-1.457Zm-590.252 81.918c-.003 4.95.166 7.101.376 4.78.209-2.321.212-6.371.005-9-.206-2.629-.378-.73-.381 4.22Zm456.145-.5c.34.55.816 1 1.059 1s.441-.45.441-1-.477-1-1.059-1-.781.45-.441 1Zm22.696 51.5c-.018 1.1.779 5.15 1.771 9 .992 3.85 1.818 6.1 1.837 5 .018-1.1-.779-5.15-1.771-9-.992-3.85-1.818-6.1-1.837-5Zm-566.117 23.083c.048 1.165.285 1.402.604.605.289-.722.253-1.585-.079-1.917-.332-.332-.568.258-.525 1.312Zm-14.062 16.873c-.56 1.471-1.017 4.476-1.017 6.677 0 6.509-3.158 26.168-4.404 27.413-.632.632-2.893 3.437-5.025 6.233-4.037 5.293-9.193 10.157-21.136 19.936-3.885 3.182-9.198 8.191-11.806 11.132-3.841 4.331-4.683 5.939-4.435 8.469.298 3.038.62 3.229 11.806 6.984 14.193 4.766 18.695 4.646 28.354-.755 3.55-1.986 7.004-4.271 7.673-5.078.67-.807 2.089-1.467 3.154-1.467 1.066 0 1.718-.354 1.451-.786-.267-.432 3.566-2.737 8.518-5.122 5.65-2.72 9.325-5.128 9.866-6.464 1.075-2.653 2.741-15.255 3.594-27.179.78-10.918-.005-12.879-8.999-22.459-3.361-3.581-7.771-9.015-9.799-12.076-5.243-7.913-6.522-8.808-7.795-5.458Zm139.154 3.292c-2.219 3.268-6.221 8.374-8.893 11.347-11.008 12.246-11.746 13.581-12.1 21.864-.22 5.132.339 10.349 1.75 16.33 1.139 4.834 2.082 10.009 2.094 11.5.035 4.209 2.81 6.825 11.353 10.701 4.331 1.965 10.406 5.542 13.5 7.948 6.187 4.812 13.718 7.843 19.124 7.698 3.94-.106 15.971-2.928 17.501-4.106.55-.423 2.691-1.314 4.758-1.98 4.848-1.561 5.954-3.64 4.182-7.856-1.3-3.09-10.732-13.141-20.19-21.513-2.337-2.069-4.25-4.193-4.25-4.721 0-.528-.562-.961-1.25-.961-.687-.001-2.429-1.238-3.869-2.75-1.441-1.512-5.154-5.326-8.25-8.477-5.805-5.904-6.528-7.243-4.381-8.11.747-.301.545-.536-.5-.583-.962-.043-1.75-.556-1.75-1.138 0-.582.431-.793.958-.467.527.325.304-.66-.494-2.191-.839-1.609-1.454-5.572-1.458-9.397-.007-7.273-1.537-16.817-2.918-18.198-.509-.509-2.587 1.628-4.917 5.06Zm-121.092-2.165c.048 1.165.285 1.402.604.605.289-.722.253-1.585-.079-1.917-.332-.332-.568.258-.525 1.312Zm575.133 7.407c-3.234 1.468-4.659 2.875-5.8 5.728-2.098 5.248-7.223 15.399-8.918 17.665-1.263 1.688-1.85 1.759-5.701.687-5.317-1.479-13.751-1.414-20.114.155-10.828 2.671-16.747 16.351-11.039 25.517 1.747 2.807 8.543 6.177 18.703 9.276 7.009 2.138 8.156 2.847 10.778 6.657 4.339 6.308 8.491 9.039 14.879 9.788 15.62 1.831 20.409.577 22.765-5.963.984-2.73 1.735-11.777 2.365-28.5 1.278-33.887.625-37.99-6.59-41.414-4.295-2.038-6.088-1.974-11.328.404Zm107.044-1.006c-3.147 1.328-5.79 6.108-7.293 13.188-1.092 5.146-1.037 7.788.369 17.689.909 6.401 1.599 17.039 1.533 23.639-.131 13.122 1.166 19.911 4.103 21.483 2.543 1.361 17.04 1.296 22.591-.102 4.795-1.208 11.1-6.734 12.076-10.585.382-1.508 2.028-2.731 5.212-3.87 16.082-5.756 18.937-7.05 21.777-9.871 2.068-2.054 3.369-4.555 3.85-7.4.627-3.71.332-4.934-2.155-8.957-5.625-9.099-12.875-12.009-26.423-10.608-10.777 1.115-10.049 1.639-16.228-11.674-2.73-5.881-5.397-10.164-6.974-11.197-3.208-2.102-9.493-2.979-12.438-1.735Z" clip-rule="evenodd"/>
</svg>
